<svg xmlns="http://www.w3.org/2000/svg" width="162" height="161" stroke="none" stroke-linecap="round" stroke-linejoin="round" fill="#fff" fill-rule="nonzero"><path d="M52.2641 124.1834s-8.4277 3.7547 5.8586 4.8291c17.198 1.6061 26.359 1.3402 45.394-1.3403 3.8248 1.7161 7.8711 3.1536 12.0795 4.292-42.8241 13.4125-97.0227-.8034-63.3388-7.7808zm-5.4807-17.4335s-9.1543 5.0949 5.1247 6.1743c18.6711 1.3402 33.3136 1.6061 58.5832-2.1432 2.4573 1.8258 5.4668 3.2029 8.7845 4.0206-51.6223 11.2642-109.466 1.0743-72.4924-8.0467zM147.8269 137.32s6.222 3.755-6.9543 6.7064c-24.5295 5.3713-102.8736 6.9774-124.8414 0-7.6868-2.4095 6.9552-5.898 11.6486-6.4352 4.7621-.8033 7.3316-.8033 7.3316-.8033-8.4274-4.2916-56.0137 8.85-24.1598 12.5996 87.4982 10.4609 159.6209-4.5581 136.9208-12.0675zM56.2251 88.5079s-39.9055 6.9777-14.28 9.3872c10.9844 1.0743 32.5814.8031 52.7186-.2662 16.4712-1.074 32.9572-3.2125 32.9572-3.2125s-5.8587 1.8774-9.8868 3.7547c-40.6315 7.7805-118.619 4.2919-96.2827-3.7547 19.0342-6.7065 34.7803-5.8983 34.7803-5.8983zm71.3958 29.2353c41.0016-15.5612 21.9671-30.5701 8.7842-28.6981-3.2887.5372-4.7619 1.0743-4.7619 1.0743s1.0966-1.6064 3.6585-2.1436c25.996-6.7061 46.4971 20.1143-8.4272 30.5704 0 0 .3628-.2662.7326-.803zm-67.3538 42.3765c39.5352 1.8774 99.9477-1.074 101.4072-14.7582 0 0-2.925 5.3713-32.5802 9.3869-33.6839 4.5581-75.4183 4.0159-99.9481 1.0743 0 0 5.1256 3.2129 31.1211 4.2919z" fill="#4e7896"/><path d="M102.7899 0s22.7003 16.8964-21.597 42.3765c-35.513 20.6511-8.0507 32.4525 0 45.8654-20.8703-13.6788-35.8761-25.7511-25.6262-37.0106C70.5724 34.5961 111.944 26.5997 102.7899 0zM91.1423 76.9777c10.6205 8.85-2.9258 16.8963-2.9258 16.8963s27.0918-10.1899 14.6418-22.7994C91.5121 59.007 82.714 53.1036 130.3138 32.9897c0 0-75.0485 13.6787-39.1715 43.988z" fill="#f58219"/></svg>