<svg xmlns="http://www.w3.org/2000/svg" width="162" height="189" stroke="none" stroke-linecap="round" stroke-linejoin="round" fill="#fff" fill-rule="nonzero"><path d="M52.2641 146.0983s-8.4277 4.4171 5.8586 5.6811c17.198 1.8895 26.359 1.5769 45.394-1.5768 3.8248 2.0194 7.8711 3.7101 12.0795 5.0497-42.8241 15.7791-97.0227-.9455-63.3388-9.154zm-5.4807-20.51s-9.1543 5.994 5.1247 7.264c18.6711 1.5764 33.3136 1.8897 58.5832-2.5217 2.4573 2.148 5.4668 3.7681 8.7845 4.7301-51.6223 13.252-109.466 1.2639-72.4924-9.4664zm101.0435 35.9646s6.222 4.4177-6.9543 7.8899c-24.5295 6.3195-102.8736 8.2092-124.8414 0-7.6868-2.8345 6.9552-6.9385 11.6486-7.5705 4.7621-.9454 7.3316-.9454 7.3316-.9454-8.4274-5.0486-56.0137 10.4118-24.1598 14.8234 87.4982 12.3066 159.6209-5.3623 136.9208-14.1974zm-91.6018-57.426s-39.9055 8.2094-14.28 11.0438c10.9844 1.2639 32.5814.9453 52.7186-.3127 16.4712-1.2637 32.9572-3.7797 32.9572-3.7797s-5.8587 2.2085-9.8868 4.4171c-40.6315 9.1535-118.619 5.0493-96.2827-4.4171 19.0342-7.89 34.7803-6.9394 34.7803-6.9394zm71.3958 34.3945c41.0016-18.3071 21.9671-35.9648 8.7842-33.7625-3.2887.632-4.7619 1.2639-4.7619 1.2639s1.0966-1.8899 3.6585-2.5219c25.996-7.8895 46.4971 23.6639-8.4272 35.9654 0 0 .3628-.3134.7326-.9449zm-67.3538 49.8549c39.5352 2.2085 99.9477-1.2637 101.4072-17.3623 0 0-2.925 6.3187-32.5802 11.0429-33.6839 5.3625-75.4183 4.7251-99.9481 1.2639 0 0 5.1256 3.7799 31.1211 5.0495z" fill="#4e7896"/><path d="M102.7899 0s22.7003 19.8781-21.597 49.8545c-35.513 24.2956-8.0507 38.1796 0 53.9595-20.8703-16.0925-35.8761-30.2955-25.6262-43.5419C70.5724 40.7015 111.944 31.2938 102.7899 0zM91.1423 90.562c10.6205 10.4118-2.9258 19.878-2.9258 19.878s27.0918-11.9881 14.6418-26.8226C91.5121 69.42 82.714 62.4746 130.3138 38.8115c0 0-75.0485 16.0925-39.1715 51.7505z" fill="#f58219"/></svg>